<svg id="Capa_1" data-name="Capa 1" xmlns="http://www.w3.org/2000/svg" viewBox="0 0 133.11 146.79"><defs><style>.cls-1{fill:#afafaf;}.cls-2{fill:#fff;}</style></defs><title>Pngs</title><path class="cls-1" d="M81.81,84.9l-11.55.83L58.7,68.41l-.05-.09c-2.58-3.81-1.8-9.8,1.46-11.85l11.37-.83L83.18,73l0,.1C85.76,76.85,85.08,82.85,81.81,84.9Z"/><path class="cls-2" d="M113.17,67.2a4,4,0,0,0-.15-1.08,10.71,10.71,0,0,0-.93-3.22,5.08,5.08,0,0,0-.39-.82.38.38,0,0,0-.09-.25,12,12,0,0,0-.73-1.27c0-.09-.1-.14-.15-.24l-.59-.88-23-34.08a15,15,0,0,0-12.39-6.59,14.62,14.62,0,0,0-8.34,2.59,14.93,14.93,0,0,0-4,20.77l9.12,13.51L83.18,73l0,.1c2.53,3.8,1.85,9.8-1.42,11.85L85,84.65l13.36-1,1.13-.1h.09a17,17,0,0,0,4.25-1c.29-.09.53-.24.82-.34s.54-.24.78-.39l.74-.44c.29-.19.58-.34.82-.53a0,0,0,0,1,0-.05c.25-.2.54-.39.83-.59a1.89,1.89,0,0,1,.49-.43l1-1v0a1.83,1.83,0,0,0,.24-.19,1.26,1.26,0,0,0,.24-.3,1.87,1.87,0,0,0,.39-.53,6.78,6.78,0,0,1,.44-.54,2.92,2.92,0,0,0,.34-.58c.15-.25.3-.49.44-.74a1.46,1.46,0,0,0,.25-.48,1.36,1.36,0,0,0,.14-.34,6.4,6.4,0,0,0,.49-1l.15-.44a3.27,3.27,0,0,0,.19-.58s.05-.15.05-.2a.88.88,0,0,0,.1-.34.75.75,0,0,1,.09-.29v0a2.13,2.13,0,0,0,.1-.49.88.88,0,0,0,.1-.34c0-.15.05-.29.05-.44a1.45,1.45,0,0,0,0-.44v-.14a2.3,2.3,0,0,0,0-.78A8.33,8.33,0,0,0,113.17,67.2Z"/><path class="cls-2" d="M83.67,104.94,70.31,85.77l0,0L58.7,68.41l-.05-.09c-2.58-3.81-1.8-9.8,1.46-11.85l-3.17.24-13.36.93h0l-1.07.1a3.58,3.58,0,0,0-1,.14,1.23,1.23,0,0,0-.59.1,6.68,6.68,0,0,0-1.31.29c-.49.1-1,.25-1.47.39a4.53,4.53,0,0,1-.83.34c-.24.15-.48.25-.73.39s-.53.3-.78.44-.53.34-.83.54l0,.05c-.24.19-.53.39-.78.58a6.52,6.52,0,0,0-.53.49,9.55,9.55,0,0,0-1,.93,4.6,4.6,0,0,0-.48.53c-.3.34-.54.69-.83,1.08a6.41,6.41,0,0,0-.78,1.26c-.1.15-.2.35-.3.49-.19.44-.44.88-.58,1.32-.05.14-.15.29-.2.44a3,3,0,0,1-.19.63c-.05.24-.15.54-.2.83H29c0,.29-.09.59-.14.88l-.15.88A14.15,14.15,0,0,0,30,79a6.91,6.91,0,0,0,.83,1.56,1.55,1.55,0,0,0,.19.39l.59.88,27.11,39.79a15,15,0,0,0,24.92-16.63Z"/></svg>