<svg id="Capa_1" data-name="Capa 1" xmlns="http://www.w3.org/2000/svg" viewBox="0 0 349.49 146.79"><defs><style>.cls-1{fill:#fff;}.cls-2{fill:#afafaf;}</style></defs><title>Pngs</title><path class="cls-1" d="M56.18,67.7v4.55c0,9.35-5,14.39-14.31,14.39H38.05v21a2.54,2.54,0,0,1-2.54,2.53H29.43V53.31H41.87C51.14,53.31,56.18,58.35,56.18,67.7ZM38.05,61.27v17.4h3.49c4.15,0,6-2.19,6-7V68.27c0-4.8-1.87-7-6-7Z"/><path class="cls-1" d="M82,110.22,75.13,86.16h-4v22a2.07,2.07,0,0,1-2.07,2.07H62.52V53.31H75c9.27,0,14.31,5,14.31,14.39v4.06c0,6-2.11,10.25-6.09,12.53l7.88,25.93ZM71.14,61.27V78.19h3.5c4.15,0,6-2.2,6-7V68.27c0-4.8-1.87-7-6-7Z"/><path class="cls-1" d="M124.16,66.89V96.64c0,9-5.29,14.4-13.91,14.4s-13.9-5.45-13.9-14.4V66.89c0-9,5.28-14.4,13.9-14.4S124.16,57.94,124.16,66.89ZM105,67V96.56c0,4.23,1.87,6.51,5.28,6.51s5.29-2.28,5.29-6.51V67c0-4.23-1.87-6.51-5.29-6.51S105,62.74,105,67Z"/><path class="cls-1" d="M184.64,61.27v-8H157.41l-6.67,30.57h-.16l-6.75-30.57h-11.3v56.91H138a2.68,2.68,0,0,0,2.69-2.69V70.71h.16L148,102.09h5.12l7.16-31.38h.15v39.51h24.23V105.3a3.06,3.06,0,0,0-3-3H169V85.34H178v-8H169V61.27Z"/><path class="cls-1" d="M264.42,61.27v-8H240.19v24H230v-24h-8.62v56.91H230V85.42h10.22v24.8h24.23v-4a4,4,0,0,0-4-4H248.84V85.34h10v-8h-10V61.27Z"/><path class="cls-1" d="M298.22,97.46c0,8.94-5.13,13.58-13.42,13.58-8.13,0-13.25-4.64-13.25-13.58V53.31h4.56A3.72,3.72,0,0,1,279.84,57V97.21c0,4.15,1.87,5.69,4.88,5.69s4.88-1.54,4.88-5.69V53.31h8.62Z"/><path class="cls-1" d="M329.93,65.26v1.46l-8.3.82V65.42c0-3.25-1.54-5-4.39-5s-4.39,1.71-4.39,5v.73c0,3.34,1.46,6.18,7.24,11.06C328,83.88,330.9,88.59,330.9,95.42v2.85c0,8.13-4.8,12.77-13.33,12.77s-13.34-4.64-13.34-12.77v-.45a3.72,3.72,0,0,1,3.36-3.7l4.94-.48V97.7q0,5.37,4.87,5.37c3.26,0,4.88-1.79,4.88-5.37V95.83c0-3.58-1.7-6.42-7.48-11.3-7.89-6.67-10.57-11.38-10.57-18V65.26c0-8.13,4.64-12.77,12.85-12.77S329.93,57.13,329.93,65.26Z"/><path class="cls-1" d="M32.62,124.87v0a2.65,2.65,0,0,0,1.45-1,2.59,2.59,0,0,0,.46-1.56,2.67,2.67,0,0,0-.38-1.47A2.33,2.33,0,0,0,33,120a3.39,3.39,0,0,0-.89-.23,8,8,0,0,0-1.14-.08H28.54v8.83h1.17a.31.31,0,0,0,.32-.31v-3.11h1l2.2,3.42H35Zm-.4-1.33a3.56,3.56,0,0,1-.6.14,5.3,5.3,0,0,1-.86,0H30V121h1a6,6,0,0,1,.8,0,2.11,2.11,0,0,1,.53.15,1.18,1.18,0,0,1,.47.44,1.54,1.54,0,0,1,.14.63,1.48,1.48,0,0,1-.19.74A1.22,1.22,0,0,1,32.22,123.54Z"/><path class="cls-1" d="M49,127.15H45.3v-2.49h3.22v-1.35H45.3V121h3.75v-1.36H43.81v8.83h5.47v-1A.31.31,0,0,0,49,127.15Z"/><path class="cls-1" d="M62.31,126a.89.89,0,0,0-.15-.54,1,1,0,0,0-.41-.34,3,3,0,0,0-.58-.22l-.68-.16a8.06,8.06,0,0,1-.91-.27,2.23,2.23,0,0,1-.75-.43,1.91,1.91,0,0,1-.52-.69,2.57,2.57,0,0,1-.2-1.06,3.05,3.05,0,0,1,.23-1.22,2.55,2.55,0,0,1,.6-.86,2.6,2.6,0,0,1,.91-.5,3.49,3.49,0,0,1,1.16-.17,5.75,5.75,0,0,1,1.3.14,3.64,3.64,0,0,1,.92.26.31.31,0,0,1,.21.29v1.19a5.87,5.87,0,0,0-1.21-.39,4.67,4.67,0,0,0-1.08-.13,1.9,1.9,0,0,0-1.13.29,1,1,0,0,0-.4.88,1,1,0,0,0,.49.91,2.18,2.18,0,0,0,.51.23l.62.16c.34.08.67.17,1,.27a2.84,2.84,0,0,1,.83.43,2,2,0,0,1,.58.72,2.7,2.7,0,0,1,.21,1.14,3,3,0,0,1-.24,1.24,2.23,2.23,0,0,1-.69.86,2.91,2.91,0,0,1-1.08.5,5.51,5.51,0,0,1-1.39.17,6.31,6.31,0,0,1-1.3-.14,3.61,3.61,0,0,1-1.06-.4v-1.37a5.28,5.28,0,0,0,1.17.41,5,5,0,0,0,1.17.13,4,4,0,0,0,.69-.06,1.91,1.91,0,0,0,.61-.21,1.24,1.24,0,0,0,.43-.42A1.15,1.15,0,0,0,62.31,126Z"/><path class="cls-1" d="M78.12,127.15H74.46v-2.49h3.22v-1.35H74.46V121h3.75v-1.36H73v8.83h5.47v-1A.31.31,0,0,0,78.12,127.15Z"/><path class="cls-1" d="M91.28,119.67H89.92l-3.06,8.4a.5.5,0,0,0,0,.12.31.31,0,0,0,.3.31h1.14l.8-2.24h3l.8,2.24h1.57Zm-1.72,5.23.28-.79c.21-.61.46-1.39.75-2.31h0c.29.91.54,1.68.77,2.31l.26.79Z"/><path class="cls-1" d="M107.19,124.87v0a2.68,2.68,0,0,0,1.46-1,2.59,2.59,0,0,0,.46-1.56,2.52,2.52,0,0,0-.39-1.47,2.28,2.28,0,0,0-1.09-.88,3.66,3.66,0,0,0-.91-.23,8.16,8.16,0,0,0-1.14-.08h-2.47v8.83h1.17a.31.31,0,0,0,.32-.31v-3.11h1l2.2,3.42h1.78Zm-.39-1.33a3.81,3.81,0,0,1-.6.14,5.38,5.38,0,0,1-.86,0h-.74V121h1.06a5.91,5.91,0,0,1,.79,0,2,2,0,0,1,.53.15.94.94,0,0,1,.46.44,1.27,1.27,0,0,1,.14.63,1.58,1.58,0,0,1-.16.74A1.29,1.29,0,0,1,106.8,123.54Z"/><path class="cls-1" d="M123.23,127.22a5.23,5.23,0,0,1-.94.09,3,3,0,0,1-1.15-.21,2.17,2.17,0,0,1-.85-.59,2.62,2.62,0,0,1-.55-1,5,5,0,0,1,0-2.76,2.72,2.72,0,0,1,.56-1,2.38,2.38,0,0,1,.88-.63,2.61,2.61,0,0,1,1.12-.23,5.79,5.79,0,0,1,.82.07,5.86,5.86,0,0,1,.89.23V120a.3.3,0,0,0-.19-.28l-.13,0a4.05,4.05,0,0,0-.5-.12,6.15,6.15,0,0,0-1-.07,4.37,4.37,0,0,0-1.81.37,3.77,3.77,0,0,0-1.33,1,4.41,4.41,0,0,0-.8,1.5,5.74,5.74,0,0,0-.3,1.88,6.06,6.06,0,0,0,.27,1.8,4.08,4.08,0,0,0,.79,1.4,3.52,3.52,0,0,0,1.31.9,4.83,4.83,0,0,0,1.81.32,8.14,8.14,0,0,0,1-.07c.34-.06.63-.13.93-.21V127A4.4,4.4,0,0,1,123.23,127.22Z"/><path class="cls-1" d="M138.36,119.67v3.64H134.6v-3.64h-1.49v8.83h1.17a.31.31,0,0,0,.32-.31v-3.53h3.76v3.84h1.47v-8.83Z"/><path class="cls-1" d="M167.16,128.32a2.76,2.76,0,0,0-.35-.39c-.14-.17-.31-.35-.49-.57s-.36-.42-.57-.64a5.43,5.43,0,0,0,.64-1.3,7.54,7.54,0,0,0,.35-1.63h-1.13a.3.3,0,0,0-.28.18.19.19,0,0,0,0,.1v0h0a4.17,4.17,0,0,1-.14.72,4.59,4.59,0,0,1-.33.84l-.81-.9-.67-.76a7,7,0,0,0,.59-.44,3.17,3.17,0,0,0,.5-.54,1.9,1.9,0,0,0,.35-.64,2.37,2.37,0,0,0,.13-.81,2.26,2.26,0,0,0-.17-.9,1.75,1.75,0,0,0-.49-.65,1.89,1.89,0,0,0-.76-.39,3.81,3.81,0,0,0-1-.13,3.47,3.47,0,0,0-1,.14,2.28,2.28,0,0,0-.75.42,1.81,1.81,0,0,0-.47.68,2.29,2.29,0,0,0-.16.9,2.25,2.25,0,0,0,.08.64,3.71,3.71,0,0,0,.22.55,4.21,4.21,0,0,0,.34.52c.14.15.28.32.44.47a7,7,0,0,0-.59.45,2.65,2.65,0,0,0-.51.55,2.18,2.18,0,0,0-.35.66,2.51,2.51,0,0,0-.12.81,2.38,2.38,0,0,0,.18,1,1.77,1.77,0,0,0,.5.74,2.1,2.1,0,0,0,.79.48,3,3,0,0,0,1,.17,4.59,4.59,0,0,0,1.36-.21,4.23,4.23,0,0,0,1.26-.66c.14.17.25.29.34.41a3.15,3.15,0,0,1,.22.29h2.05Zm-5.52-7a.87.87,0,0,1,.18-.26.82.82,0,0,1,.29-.17.84.84,0,0,1,.4-.07,1,1,0,0,1,.68.22.84.84,0,0,1,.24.62,1.32,1.32,0,0,1-.07.42,1.53,1.53,0,0,1-.21.37,2.42,2.42,0,0,1-.32.32,4.4,4.4,0,0,1-.39.29c-.13-.12-.25-.25-.35-.36a2.51,2.51,0,0,1-.28-.35,1.8,1.8,0,0,1-.17-.34,1.09,1.09,0,0,1-.06-.36A.88.88,0,0,1,161.64,121.29Zm1.43,6a2.74,2.74,0,0,1-.84.14,1.63,1.63,0,0,1-.45-.07,1.14,1.14,0,0,1-.37-.21,1.07,1.07,0,0,1-.23-.35,1.09,1.09,0,0,1-.1-.47,1.23,1.23,0,0,1,.08-.44,1.06,1.06,0,0,1,.21-.39,2.39,2.39,0,0,1,.31-.34,2.32,2.32,0,0,1,.39-.29l.41.45.46.5c.16.17.31.34.46.52l.47.52A3,3,0,0,1,163.07,127.25Z"/><path class="cls-1" d="M193.91,122.65a4.18,4.18,0,0,0-.51-1.16,3.42,3.42,0,0,0-.84-.9,4.08,4.08,0,0,0-1.13-.61,3.76,3.76,0,0,0-.48-.13l-.55-.1a5.25,5.25,0,0,0-.57,0,5.63,5.63,0,0,0-.58,0h-2.14v8.54a.31.31,0,0,0,.31.29H189a9.3,9.3,0,0,0,1.46-.1,5.32,5.32,0,0,0,1.18-.32,3.63,3.63,0,0,0,1.06-.65,3.15,3.15,0,0,0,.75-.91,3.42,3.42,0,0,0,.44-1.13,5.65,5.65,0,0,0,.14-1.33A5.74,5.74,0,0,0,193.91,122.65Zm-1.69,3.09a2.25,2.25,0,0,1-1,1,4.52,4.52,0,0,1-2,.39h-.62V121h.66a4.55,4.55,0,0,1,.94.07,2.7,2.7,0,0,1,.77.21,2.81,2.81,0,0,1,.68.39,2.53,2.53,0,0,1,.49.59,2.66,2.66,0,0,1,.32.77,4.26,4.26,0,0,1,.11,1A3.67,3.67,0,0,1,192.22,125.74Z"/><path class="cls-1" d="M208.4,127.18l-.12,0h-3.66v-2.49h3.24v-1.35h-3.24V121h3.77v-1.36h-5.26v8.83h5.47v-1A.32.32,0,0,0,208.4,127.18Z"/><path class="cls-1" d="M222.9,119.67l-1.5,4.39q-.32,1-.42,1.26c-.06.21-.17.54-.33,1h0c-.15-.48-.27-.81-.34-1s-.19-.62-.42-1.26l-1.43-4.18a.24.24,0,0,0-.18-.18.27.27,0,0,0-.12,0h-1.34L220,128.5h1.33l3.17-8.83Z"/><path class="cls-1" d="M238.5,127.36a.32.32,0,0,0-.18-.18l-.13,0h-3.67v-2.49h3.24v-1.35h-3.24V121h3.77v-1.36h-5.24v8.83h5.47v-1A.22.22,0,0,0,238.5,127.36Z"/><path class="cls-1" d="M252.83,127.36a.32.32,0,0,0-.18-.18l-.13,0H249v-7.48h-1.48v8.83h5.28v-1A.41.41,0,0,0,252.83,127.36Z"/><path class="cls-1" d="M268.76,124.09a6,6,0,0,1-.27,1.85,4.26,4.26,0,0,1-.76,1.45,3.44,3.44,0,0,1-1.25.94,4.27,4.27,0,0,1-3.34,0,3.44,3.44,0,0,1-1.25-.94,4.46,4.46,0,0,1-.77-1.45,6.71,6.71,0,0,1,0-3.7,4.36,4.36,0,0,1,.77-1.45,3.47,3.47,0,0,1,1.25-1,4.39,4.39,0,0,1,3.34,0,3.47,3.47,0,0,1,1.25,1,4.17,4.17,0,0,1,.76,1.45A6,6,0,0,1,268.76,124.09Zm-1.53,0a4.91,4.91,0,0,0-.19-1.41,2.9,2.9,0,0,0-.5-1,2,2,0,0,0-.76-.6,2.4,2.4,0,0,0-1-.2,2.37,2.37,0,0,0-1,.2,2,2,0,0,0-.76.6,3.09,3.09,0,0,0-.51,1,5.61,5.61,0,0,0,0,2.82,3,3,0,0,0,.51,1,2,2,0,0,0,.76.6,2.22,2.22,0,0,0,1,.2,2.25,2.25,0,0,0,1-.2,2,2,0,0,0,.76-.6,2.84,2.84,0,0,0,.5-1A4.91,4.91,0,0,0,267.23,124.09Z"/><path class="cls-1" d="M283.24,120.78a2.56,2.56,0,0,0-1.28-.89,6.15,6.15,0,0,0-.78-.17c-.3,0-.64,0-1,0h-2.34v8.83H279a.32.32,0,0,0,.33-.31v-3.14a2,2,0,0,0,.36,0h.39a6.05,6.05,0,0,0,1.55-.18,3.4,3.4,0,0,0,1.13-.55,2.51,2.51,0,0,0,.72-.87,2.88,2.88,0,0,0,.23-1.15A2.59,2.59,0,0,0,283.24,120.78Zm-1.2,2.1a1,1,0,0,1-.36.45,1.79,1.79,0,0,1-.65.29,4,4,0,0,1-1,.11h-.41a1.39,1.39,0,0,1-.32,0V121h.82c.31,0,.56,0,.77,0a2.1,2.1,0,0,1,.52.12,1,1,0,0,1,.58.44,1.33,1.33,0,0,1,.17.67A1.63,1.63,0,0,1,282,122.88Z"/><path class="cls-1" d="M299,119.67l-1.41,4.23c-.26.79-.47,1.54-.66,2.23h0c-.19-.8-.42-1.55-.66-2.26l-1.38-4.2h-2.08v8.83h1.16a.32.32,0,0,0,.33-.31V124c0-.72,0-1.47-.09-2.29h.06c.07.26.15.54.25.84s.18.64.28.93l1.68,5h1l1.68-5c.1-.29.2-.6.29-.93s.17-.58.24-.84h.06c-.06.87-.07,1.63-.07,2.29v4.47h1.48v-8.83Z"/><path class="cls-1" d="M315.91,127.36a.27.27,0,0,0-.18-.18l-.12,0H312v-2.49h3.24v-1.35H312V121h3.77v-1.36h-5.26v8.83h5.47v-1A.22.22,0,0,0,315.91,127.36Z"/><path class="cls-1" d="M324.2,119.67v1h0a.31.31,0,0,0,.31.3h2.3v7.47h1.48V121h2.61v-1.36Z"/><path class="cls-1" d="M189.5,53.31v5.15a3,3,0,0,0,3,3h1.13l.72,15.39c0,3.26,4,5.93,5.11,6.23l.94,27.16h4.93l1.12-27.17c1.19-.34,5.28-3,5.28-6.22l.86-15.39h1a3,3,0,0,0,3-3V53.31Z"/><path class="cls-2" d="M206.21,38.27l-3.32.24-3.32-5,0,0a2.6,2.6,0,0,1,.42-3.41l3.27-.23,3.37,5v0A2.6,2.6,0,0,1,206.21,38.27Z"/><path class="cls-2" d="M214.12,36.53l-.28.28h0Z"/><path class="cls-1" d="M215.24,33.87a.55.55,0,0,1,0,.22v0a.34.34,0,0,1,0,.13,2.07,2.07,0,0,1,0,.22.39.39,0,0,1,0,.14.36.36,0,0,0,0,.1.38.38,0,0,1,0,.1l0,0a.48.48,0,0,1,0,.17c-.06.14-.12.28-.19.41a.21.21,0,0,1,0,.1.37.37,0,0,1-.07.14l-.12.21a2.35,2.35,0,0,1-.23.32.58.58,0,0,1-.11.15.28.28,0,0,1-.07.09.21.21,0,0,1-.07,0v0l-.28.27h0a.55.55,0,0,0-.14.13l-.24.16s0,0,0,0l-.24.15-.21.13-.23.11-.23.1a3.38,3.38,0,0,1-.62.18,3.27,3.27,0,0,1-.6.1h0l-.32,0-3.85.28-.91.07a2.6,2.6,0,0,0,.41-3.41v0l-3.37-5L200.62,26a4.3,4.3,0,0,1,1.16-6,4.24,4.24,0,0,1,2.4-.74,4.32,4.32,0,0,1,3.56,1.89l6.62,9.8.17.25a.25.25,0,0,0,0,.07,3.25,3.25,0,0,1,.21.37.11.11,0,0,1,0,.07,2.4,2.4,0,0,1,.11.23,3.41,3.41,0,0,1,.27.93,1.65,1.65,0,0,1,0,.31A2.28,2.28,0,0,1,215.24,33.87Z"/><path class="cls-1" d="M214.37,36.22a2.35,2.35,0,0,0,.23-.32l-.1.17A1,1,0,0,0,214.37,36.22Z"/><path class="cls-1" d="M214.83,35.45c.07-.13.13-.27.19-.41l0,.13A1.84,1.84,0,0,1,214.83,35.45Z"/><path class="cls-1" d="M215.12,34.72a.36.36,0,0,1,0-.1v0A.19.19,0,0,0,215.12,34.72Z"/><path class="cls-1" d="M215.21,34.26s0,.08,0,.12a.19.19,0,0,1,0,.1A2.07,2.07,0,0,0,215.21,34.26Z"/><path class="cls-1" d="M205.55,50a4.29,4.29,0,0,1-6-1.19l-7.79-11.44-.17-.25a.6.6,0,0,1-.06-.11,2.79,2.79,0,0,1-.24-.45,3.89,3.89,0,0,1-.37-1.49,4.29,4.29,0,0,1,3.11-4.46,1.61,1.61,0,0,1,.38-.08.32.32,0,0,1,.17,0c.09,0,.21,0,.3,0l4.15-.31.91-.07a2.6,2.6,0,0,0-.42,3.41l0,0,3.32,5h0L206.75,44A4.31,4.31,0,0,1,205.55,50Z"/><path class="cls-1" d="M193.64,30.73a3.31,3.31,0,0,1,.42-.12A4.29,4.29,0,0,0,191,35.07a3.89,3.89,0,0,0,.37,1.49,4.14,4.14,0,0,1-.39-2.36l0-.25.05-.25h0a1.4,1.4,0,0,1,.06-.24,1.67,1.67,0,0,0,0-.18l.06-.13a3.17,3.17,0,0,1,.17-.38s0-.1.08-.14a2,2,0,0,1,.23-.36l.23-.31.14-.16.28-.26a1.07,1.07,0,0,1,.16-.14l.22-.17h0l.24-.16.22-.12c.07-.05.14-.07.21-.12Z"/><path class="cls-1" d="M199.06,30.16l-4.15.31c-.09,0-.21,0-.3,0a.92.92,0,0,1,.29,0l.31,0h0Z"/></svg>